<svg width="24" height="24" viewBox="0 0 24 24" fill="none" xmlns="http://www.w3.org/2000/svg">
<path d="M8.05029 14.5355V8.46443C8.05029 7.91215 7.60258 7.46444 7.05029 7.46444C6.49801 7.46443 6.05029 7.91215 6.05029 8.46444V17.4497C6.05029 17.7259 6.27415 17.9497 6.55029 17.9497H7.04578C7.04879 17.9497 7.0518 17.9497 7.0548 17.9497L15.5356 17.9497C16.0879 17.9497 16.5356 17.502 16.5356 16.9497C16.5356 16.3974 16.0879 15.9497 15.5356 15.9497L9.46452 15.9497L17.6569 7.75734C18.0474 7.36681 18.0474 6.73365 17.6569 6.34313C17.2664 5.9526 16.6332 5.9526 16.2427 6.34313L8.05029 14.5355Z" fill="#17163A"/>
</svg>
