<svg width="24" height="24" viewBox="0 0 24 24" fill="none" xmlns="http://www.w3.org/2000/svg">
<path d="M6.05029 6.55024C6.05029 6.2741 6.27415 6.05024 6.55029 6.05024L7.04548 6.05024C7.04868 6.05023 7.05187 6.05023 7.05506 6.05024L15.5356 6.05024C16.0879 6.05024 16.5356 6.49796 16.5356 7.05024C16.5356 7.60253 16.0879 8.05024 15.5356 8.05024H9.4645L17.6569 16.2426C18.0474 16.6331 18.0474 17.2663 17.6569 17.6568C17.2663 18.0474 16.6332 18.0474 16.2427 17.6568L8.05029 9.46447V15.5355C8.05029 16.0878 7.60258 16.5355 7.05029 16.5355C6.49801 16.5355 6.05029 16.0878 6.05029 15.5355L6.05029 6.55024Z" fill="#17163A"/>
</svg>
