<svg width="24" height="24" viewBox="0 0 24 24" fill="none" xmlns="http://www.w3.org/2000/svg">
<path d="M17.9498 17.4497C17.9498 17.7259 17.7259 17.9497 17.4498 17.9497H16.9543C16.9513 17.9497 16.9483 17.9497 16.9453 17.9497L8.46451 17.9497C7.91222 17.9497 7.46451 17.502 7.46451 16.9497C7.46451 16.3974 7.91222 15.9497 8.46451 15.9497L14.5356 15.9497L6.34319 7.75734C5.95266 7.36681 5.95266 6.73365 6.34319 6.34313C6.73371 5.9526 7.36688 5.9526 7.7574 6.34313L15.9498 14.5355V8.46443C15.9498 7.91215 16.3975 7.46444 16.9498 7.46444C17.5021 7.46443 17.9498 7.91215 17.9498 8.46444L17.9498 17.4497Z" fill="#17163A"/>
</svg>
