<svg width="24" height="24" viewBox="0 0 24 24" fill="none" xmlns="http://www.w3.org/2000/svg">
<path d="M7.41429 13L10.7072 9.70711C11.0977 9.31658 11.0977 8.68342 10.7072 8.29289C10.3167 7.90237 9.68349 7.90237 9.29297 8.29289L3.93942 13.6464C3.74415 13.8417 3.74415 14.1583 3.93942 14.3536L9.29297 19.7071C9.68349 20.0976 10.3167 20.0976 10.7072 19.7071C11.0977 19.3166 11.0977 18.6834 10.7072 18.2929L7.41429 15H16.0001C18.2092 15 20.0001 13.2091 20.0001 11V5C20.0001 4.44771 19.5524 4 19.0001 4C18.4478 4 18.0001 4.44771 18.0001 5V11C18.0001 12.1046 17.1046 13 16.0001 13H7.41429Z" fill="#17163A"/>
</svg>
