<svg width="24" height="24" viewBox="0 0 24 24" fill="none" xmlns="http://www.w3.org/2000/svg">
<path d="M10.7071 5.70711C11.0976 5.31658 11.0976 4.68342 10.7071 4.29289C10.3165 3.90237 9.68337 3.90237 9.29285 4.29289L3.93929 9.64645C3.74403 9.84171 3.74403 10.1583 3.93929 10.3536L9.29285 15.7071C9.68337 16.0976 10.3165 16.0976 10.7071 15.7071C11.0976 15.3166 11.0976 14.6834 10.7071 14.2929L7.41417 11H16C17.1045 11 18 11.8954 18 13V19C18 19.5523 18.4477 20 19 20C19.5522 20 20 19.5523 20 19V13C20 10.7909 18.2091 9 16 9H7.41417L10.7071 5.70711Z" fill="#17163A"/>
</svg>
