<svg width="24" height="24" viewBox="0 0 24 24" fill="none" xmlns="http://www.w3.org/2000/svg">
<path d="M18.2071 16.7927C18.5976 17.1832 18.5976 17.8164 18.2071 18.2069C17.8166 18.5974 17.1834 18.5974 16.7929 18.2069L12 13.4141L7.20731 18.2069C6.81679 18.5975 6.18363 18.5975 5.7931 18.207C5.40257 17.8164 5.40256 17.1833 5.79309 16.7927L10.5858 11.9999L5.79289 7.20709C5.40237 6.81657 5.40237 6.18341 5.7929 5.79289C6.18342 5.40237 6.81659 5.40237 7.20712 5.79289L12 10.5857L16.7927 5.79291C17.1832 5.40238 17.8164 5.40238 18.2069 5.7929C18.5975 6.18342 18.5975 6.81658 18.2069 7.20711L13.4142 11.9999L18.2071 16.7927Z" fill="#17163A"/>
</svg>
