<svg width="24" height="24" viewBox="0 0 24 24" fill="none" xmlns="http://www.w3.org/2000/svg">
<g clip-path="url(#clip0_658_2155)">
<path fill-rule="evenodd" clip-rule="evenodd" d="M19.9731 18.6594L17.0233 15.7095L15.0771 18.2868L14.37 18.0077L14.3655 18.0059L14.3567 18.0024L14.3265 17.9902C14.301 17.9798 14.2646 17.9649 14.2186 17.9455C14.1266 17.9069 13.9954 17.8505 13.8333 17.7775C13.5097 17.6316 13.06 17.4181 12.5508 17.145C11.5464 16.6064 10.2501 15.8046 9.24114 14.7957C8.23221 13.7867 7.43036 12.4903 6.89171 11.4859C6.61857 10.9766 6.40501 10.527 6.25914 10.2033C6.18609 10.0412 6.12972 9.91004 6.09105 9.81798C6.07171 9.77194 6.05677 9.73562 6.04637 9.71006L6.03418 9.67988L6.03066 9.67107L6.02915 9.66728L5.74971 8.95945L8.32699 7.01326L5.3772 4.06348C4.7923 5.01927 4.0398 6.64467 4.03499 8.66564C4.03 10.7615 4.82796 13.4137 7.72552 16.3113C10.6231 19.2089 13.2753 20.0068 15.3711 20.0017C17.392 19.9969 19.0173 19.2443 19.9731 18.6594ZM8.19257 9.62094L9.53222 8.60933C10.5014 7.87747 10.6 6.45781 9.7412 5.59905L6.7051 2.56295C5.91555 1.7734 4.49053 1.73453 3.78696 2.83462C3.07486 3.94804 2.0413 6.01368 2.035 8.66088C2.02861 11.3442 3.07855 14.4927 6.3113 17.7255C9.54408 20.9583 12.6927 22.0082 15.3759 22.0017C18.0231 21.9953 20.0886 20.9617 21.202 20.2496C22.302 19.546 22.2631 18.121 21.4736 17.3315L18.4375 14.2953C17.5787 13.4366 16.1591 13.5351 15.4272 14.5043L14.4156 15.844C14.1569 15.7228 13.8415 15.5677 13.496 15.3824C12.5596 14.8803 11.4615 14.1876 10.6553 13.3815C9.84921 12.5753 9.15644 11.4771 8.65425 10.5407C8.46889 10.1951 8.3138 9.87966 8.19257 9.62094Z" fill="#17163A"/>
</g>
<defs>
<clipPath id="clip0_658_2155">
<rect width="24" height="24" fill="white"/>
</clipPath>
</defs>
</svg>
