<svg width="24" height="24" viewBox="0 0 24 24" fill="none" xmlns="http://www.w3.org/2000/svg">
<path fill-rule="evenodd" clip-rule="evenodd" d="M9.53217 8.60934L8.19252 9.62095C8.31375 9.87968 8.46884 10.1951 8.65419 10.5407C9.15639 11.4771 9.84916 12.5753 10.6553 13.3815C11.4614 14.1876 12.5596 14.8803 13.4959 15.3824C13.8415 15.5677 14.1568 15.7228 14.4155 15.844L15.4272 14.5043C16.159 13.5352 17.5787 13.4366 18.4374 14.2954L21.4736 17.3315C22.2631 18.121 22.302 19.546 21.202 20.2496C20.0886 20.9617 18.023 21.9954 15.3758 22.0017C12.6926 22.0082 9.54402 20.9583 6.31125 17.7255C3.07849 14.4928 2.02855 11.3442 2.03494 8.6609C2.04124 6.0137 3.07481 3.94806 3.78691 2.83463C4.49047 1.73455 5.91549 1.77342 6.70504 2.56297L9.74115 5.59907C10.5999 6.45782 10.5013 7.87749 9.53217 8.60934ZM17.0232 15.7096L19.973 18.6594C19.0173 19.2443 17.392 19.9969 15.371 20.0017C13.2753 20.0068 10.623 19.2089 7.72546 16.3113C4.8279 13.4137 4.02995 10.7615 4.03493 8.66566C4.03975 6.64469 4.79224 5.01929 5.37715 4.0635L8.32693 7.01328L5.74965 8.95947L6.0291 9.6673L6.0306 9.67109L6.03412 9.6799L6.04631 9.71008C6.05671 9.73564 6.07165 9.77196 6.09099 9.818C6.12966 9.91006 6.18604 10.0412 6.25908 10.2033C6.40496 10.527 6.61852 10.9766 6.89165 11.4859C7.43031 12.4904 8.23215 13.7868 9.24108 14.7957C10.25 15.8046 11.5464 16.6064 12.5507 17.145C13.06 17.4181 13.5096 17.6316 13.8333 17.7775C13.9953 17.8505 14.1265 17.9069 14.2186 17.9455C14.2646 17.9649 14.3009 17.9798 14.3265 17.9902L14.3566 18.0024L14.3655 18.0059L14.37 18.0077L15.0771 18.2868L17.0232 15.7096Z" fill="#17163A"/>
<path d="M19.8284 9.41425C19.2761 9.41425 18.8284 8.96653 18.8284 8.41425V6.58582L14.8787 10.5355C14.4881 10.9261 13.855 10.9261 13.4644 10.5355C13.0739 10.145 13.0739 9.51186 13.4644 9.12133L17.4142 5.17161L15.5857 5.17161C15.0335 5.17161 14.5857 4.72389 14.5857 4.17161C14.5857 3.61932 15.0335 3.17161 15.5857 3.17161H20.3284C20.6045 3.17161 20.8284 3.39547 20.8284 3.67161V8.41425C20.8284 8.96653 20.3807 9.41425 19.8284 9.41425Z" fill="#17163A"/>
</svg>
