<svg width="24" height="24" viewBox="0 0 24 24" fill="none" xmlns="http://www.w3.org/2000/svg">
<path d="M9.37142 9.40411C9.95721 8.81833 9.95721 7.86858 9.37142 7.28279C8.78564 6.69701 7.83589 6.69701 7.2501 7.28279C6.66432 7.86858 6.66432 8.81833 7.2501 9.40411C7.83589 9.9899 8.78564 9.9899 9.37142 9.40411Z" fill="#17163A"/>
<path fill-rule="evenodd" clip-rule="evenodd" d="M2.72933 4.79003C2.71333 3.66333 3.63082 2.74584 4.75752 2.76183L8.15504 2.81007C9.71669 2.83225 11.2081 3.46247 12.3125 4.56683L16.0258 8.28011C17.79 7.91669 19.6996 8.41857 21.0708 9.78974C21.6388 10.3578 21.6388 11.2787 21.0708 11.8468L11.8141 21.1035C11.2461 21.6715 10.3251 21.6715 9.7571 21.1035C8.38587 19.7322 7.88401 17.8225 8.24752 16.0582L4.53433 12.345C3.42997 11.2406 2.79975 9.74919 2.77757 8.18755L2.72933 4.79003ZM8.12665 4.80987L4.72913 4.76163L4.77737 8.15915C4.79215 9.20025 5.2123 10.1946 5.94854 10.9308L10.5032 15.4855L10.3108 16.07C9.95928 17.138 10.1286 18.3369 10.8151 19.2741L19.2414 10.8477C18.3043 10.1613 17.1055 9.99193 16.0376 10.3434L15.453 10.5358L10.8983 5.98104C10.162 5.2448 9.16774 4.82465 8.12665 4.80987Z" fill="#17163A"/>
<path d="M19.1797 20.0497C18.3919 20.0556 17.1684 19.976 16.2017 19.5142C15.7034 19.276 15.6984 18.6335 16.0889 18.2429L18.2102 16.1216C18.6008 15.7311 19.2433 15.7361 19.4815 16.2344C19.9433 17.2011 20.0229 18.4246 20.017 19.2124C20.0135 19.6801 19.6474 20.0462 19.1797 20.0497Z" fill="#17163A"/>
</svg>
