<svg width="24" height="24" viewBox="0 0 24 24" fill="none" xmlns="http://www.w3.org/2000/svg">
<path fill-rule="evenodd" clip-rule="evenodd" d="M14.7847 16.1989C11.6462 18.6414 7.10654 18.4203 4.22181 15.5356C1.09761 12.4114 1.09761 7.34605 4.22181 4.22185C7.346 1.09766 12.4113 1.09766 15.5355 4.22185C18.4202 7.10658 18.6414 11.6463 16.1989 14.7847L20.4853 19.0711C20.8758 19.4616 20.8758 20.0948 20.4853 20.4853C20.0948 20.8759 19.4616 20.8758 19.0711 20.4853L14.7847 16.1989ZM5.63602 14.1213C7.97917 16.4645 11.7782 16.4645 14.1213 14.1213C16.4644 11.7782 16.4644 7.97921 14.1213 5.63607C11.7782 3.29292 7.97917 3.29292 5.63602 5.63607C3.29288 7.97921 3.29288 11.7782 5.63602 14.1213Z" fill="#17163A"/>
</svg>
