<svg width="24" height="24" viewBox="0 0 24 24" fill="none" xmlns="http://www.w3.org/2000/svg">
<path fill-rule="evenodd" clip-rule="evenodd" d="M14.1483 9.97205L12 5.6191L9.85165 9.97205L5.04788 10.6701L8.52392 14.0584L7.70334 18.8427L12 16.5839L16.2966 18.8427L15.476 14.0584L18.952 10.6701L14.1483 9.97205ZM8.52352 8.14404L2.75512 8.98224C1.9349 9.10142 1.60739 10.1094 2.20091 10.6879L6.37496 14.7566L5.3896 20.5017C5.24949 21.3186 6.10692 21.9416 6.84055 21.5559L12 18.8434L17.1594 21.5559C17.893 21.9416 18.7504 21.3186 18.6103 20.5017L17.625 14.7566L21.799 10.6879C22.3925 10.1094 22.065 9.10142 21.2448 8.98224L15.4764 8.14404L12.8967 2.91698C12.5299 2.17374 11.47 2.17374 11.1032 2.91699L8.52352 8.14404Z" fill="#17163A"/>
</svg>
