<svg width="24" height="24" viewBox="0 0 24 24" fill="none" xmlns="http://www.w3.org/2000/svg">
<path fill-rule="evenodd" clip-rule="evenodd" d="M2.73083 6.05308C3.01342 5.40832 3.85604 5.24962 4.35382 5.7474L7.18721 8.5808L8.24787 8.22724L8.60143 7.16658L5.76803 4.33319C5.27025 3.83541 5.42895 2.99279 6.07371 2.7102C8.45264 1.66751 11.3312 2.11818 13.2811 4.06807C15.0553 5.84224 15.5882 8.38525 14.8845 10.6212L20.6463 16.3831C21.8179 17.5546 21.8179 19.4541 20.6463 20.6257C19.4748 21.7973 17.5753 21.7973 16.4037 20.6257L10.6418 14.8638C8.40588 15.5676 5.86287 15.0346 4.0887 13.2605C2.13881 11.3106 1.68814 8.43201 2.73083 6.05308ZM4.19164 8.41365C4.12332 9.64799 4.56107 10.9044 5.50291 11.8462C6.85095 13.1943 8.8434 13.5097 10.4932 12.7866L11.1188 12.5124L17.8179 19.2115C18.2084 19.602 18.8416 19.602 19.2321 19.2115C19.6227 18.821 19.6227 18.1878 19.2321 17.7973L12.533 11.0981L12.8072 10.4726C13.5303 8.82277 13.2149 6.83032 11.8669 5.48228C10.925 4.54044 9.66862 4.10269 8.43428 4.17101L10.0156 5.75237C10.5513 6.28804 10.7384 7.08037 10.4988 7.79904L10.1452 8.8597C9.94617 9.45691 9.47754 9.92554 8.88033 10.1246L7.81967 10.4782C7.101 10.7177 6.30866 10.5307 5.773 9.99501L4.19164 8.41365Z" fill="#17163A"/>
</svg>
